<svg width="30" height="19.999999999999996" xmlns="http://www.w3.org/2000/svg">

 <g>
  <title>Layer 1</title>
  <path stroke="#ffffff" fill="none" id="svg_1" d="m29.17049,17.66196c0.01592,-0.04649 0.02676,-0.09555 0.02676,-0.14717l0,-17.03417c0,-0.05194 -0.01084,-0.10132 -0.0271,-0.14813c-0.00237,-0.00641 -0.00373,-0.01283 -0.00644,-0.01924c-0.02168,-0.05483 -0.05351,-0.10421 -0.09348,-0.14749c-0.00271,-0.00289 -0.00305,-0.00641 -0.00576,-0.0093c-0.00169,-0.0016 -0.00373,-0.00224 -0.00542,-0.00385c-0.04268,-0.04296 -0.09314,-0.07759 -0.1497,-0.10356c-0.0044,-0.00192 -0.00779,-0.00449 -0.01219,-0.00641c-0.05351,-0.02276 -0.11177,-0.03559 -0.17307,-0.03944c-0.0061,-0.00032 -0.01185,-0.0016 -0.01795,-0.0016c-0.00576,-0.00032 -0.01084,-0.0016 -0.0166,-0.0016l-28.18116,0c-0.00576,0 -0.01118,0.00128 -0.01693,0.0016c-0.00542,0.00032 -0.01084,0.00128 -0.01626,0.0016c-0.06198,0.00385 -0.12125,0.01699 -0.17544,0.04008c-0.00339,0.00128 -0.0061,0.00353 -0.00948,0.00481c-0.05758,0.02597 -0.10872,0.06124 -0.15174,0.10485c-0.00169,0.0016 -0.00373,0.00192 -0.00542,0.00353c-0.00271,0.00257 -0.00305,0.00609 -0.00576,0.00898c-0.03997,0.04329 -0.07214,0.09298 -0.09382,0.14781c-0.00271,0.00641 -0.00406,0.01283 -0.00644,0.01956c-0.01626,0.04681 -0.0271,0.09619 -0.0271,0.14813l0,17.03449c0,0.05258 0.01118,0.1026 0.02777,0.15006c0.00237,0.00641 0.00373,0.0125 0.0061,0.01892c0.02202,0.05515 0.05453,0.10485 0.09483,0.14813c0.00237,0.00257 0.00305,0.00577 0.00542,0.00834c0.00203,0.00224 0.00474,0.00353 0.00711,0.00577c0.0166,0.01635 0.03489,0.03078 0.05385,0.04489c0.00847,0.00609 0.01592,0.01347 0.02472,0.01924c0.02235,0.01475 0.0464,0.02661 0.07113,0.03751c0.0061,0.00257 0.01152,0.00673 0.01761,0.00898c0.0613,0.02469 0.1287,0.0388 0.19949,0.0388l28.18082,0c0.07079,0 0.13819,-0.01379 0.19949,-0.0388c0.00948,-0.00385 0.01829,-0.00962 0.02743,-0.01411c0.021,-0.00994 0.042,-0.0202 0.0613,-0.0327c0.01016,-0.00673 0.01931,-0.01539 0.02913,-0.02276c0.01727,-0.01315 0.03421,-0.02629 0.04911,-0.04136c0.00271,-0.00257 0.00576,-0.00449 0.00847,-0.00705c0.00271,-0.00289 0.00339,-0.00673 0.0061,-0.00962c0.03963,-0.04296 0.07146,-0.09234 0.09314,-0.14685c0.00339,-0.00705 0.00508,-0.01379 0.00745,-0.02084zm-28.15406,-16.09055l8.55105,7.39407l-8.55105,7.45307l0,-14.84714zm17.52614,7.03176c-0.03522,0.0218 -0.07248,0.04008 -0.10195,0.07086c-0.01118,0.01154 -0.0149,0.02661 -0.02472,0.0388l-3.8171,3.30058l-12.78101,-11.05183l25.56203,0l-8.83724,7.6416zm-8.22183,1.01351l3.9353,3.40286c0.09721,0.08401 0.21981,0.12601 0.34276,0.12601s0.24555,-0.042 0.34242,-0.12601l3.88653,-3.36053l8.54969,7.37516l-25.56711,0l8.5104,-7.41748zm9.26061,-0.6092l8.59982,-7.43608l0,14.85484l-8.59982,-7.41876z"/>
 </g>
</svg>