<svg width="24" height="24" xmlns="http://www.w3.org/2000/svg">

 <g>
  <title>background</title>
  <rect fill="none" id="canvas_background" height="402" width="582" y="-1" x="-1"/>
 </g>
 <g>
  <title>Layer 1</title>
  <g id="surface1">
   <path id="svg_1" fill-rule="nonzero" fill="#ffffff" d="m20,5c0,-2.19922 -1.80078,-4 -4,-4l-8,0c-2.19922,0 -4,1.80078 -4,4l0,16c0,2.19922 1.80078,4 4,4l8,0c2.19922,0 4,-1.80078 4,-4l0,-16zm-7,18l-2,0c-0.60156,0 -1,-0.39844 -1,-1c0,-0.60156 0.39844,-1 1,-1l2,0c0.60156,0 1,0.39844 1,1c0,0.60156 -0.39844,1 -1,1zm5,-5c0,0.60156 -0.39844,1 -1,1l-10,0c-0.60156,0 -1,-0.39844 -1,-1l0,-12c0,-0.60156 0.39844,-1 1,-1l10,0c0.60156,0 1,0.39844 1,1l0,12zm0,0"/>
  </g>
 </g>
</svg>